<?xml version="1.0" standalone="no"?>
<!DOCTYPE svg PUBLIC "-//W3C//DTD SVG 20010904//EN"
 "http://www.w3.org/TR/2001/REC-SVG-20010904/DTD/svg10.dtd">
<svg version="1.0" xmlns="http://www.w3.org/2000/svg"
 width="341.000000pt" height="192.000000pt" viewBox="0 0 341.000000 192.000000"
 preserveAspectRatio="xMidYMid meet">

<g transform="translate(0.000000,192.000000) scale(0.100000,-0.100000)"
fill="#000000" stroke="none">
<path d="M2255 1910 c-6 -10 24 -59 38 -60 4 0 7 -7 7 -15 0 -21 22 -65 32
-65 19 0 73 -46 76 -65 2 -11 10 -27 18 -36 16 -17 19 -49 5 -49 -11 0 -11
-121 1 -136 5 -7 -2 -22 -17 -38 -29 -32 -31 -44 -8 -53 13 -5 12 -8 -8 -16
-14 -5 -19 -11 -12 -14 9 -3 10 -10 3 -22 -5 -10 -6 -21 -3 -25 3 -3 -1 -6
-10 -6 -9 0 -30 -13 -47 -30 -17 -16 -36 -30 -43 -30 -7 0 -6 -4 3 -10 13 -8
13 -10 1 -10 -11 0 -9 -4 5 -15 14 -10 15 -14 5 -15 -10 0 -6 -9 12 -28 25
-26 26 -29 11 -50 -16 -24 -12 -74 9 -101 12 -14 13 -19 26 -103 5 -32 12 -62
16 -68 4 -6 2 -17 -4 -24 -6 -7 -8 -21 -5 -30 7 -17 -24 -86 -38 -86 -12 0 -9
-35 4 -48 17 -17 1 -27 -19 -11 -10 7 -6 0 10 -17 30 -33 36 -60 11 -50 -9 3
-17 6 -20 6 -11 0 -30 60 -28 90 3 59 -28 104 -114 162 -95 64 -183 138 -176
149 3 5 -2 6 -11 3 -11 -5 -14 -2 -9 10 3 9 1 16 -5 16 -6 0 -11 6 -11 13 0 7
-9 20 -20 30 -22 19 -35 22 -25 7 3 -5 1 -10 -5 -10 -6 0 -8 -4 -5 -10 3 -5
-1 -10 -10 -10 -12 0 -15 -6 -10 -20 4 -12 2 -20 -5 -20 -8 0 -6 -10 6 -27 13
-22 14 -25 2 -15 -22 18 -55 -12 -37 -34 15 -18 3 -48 -16 -40 -18 6 -19 1 -5
-25 6 -11 7 -19 3 -18 -37 6 -50 -16 -29 -49 5 -8 1 -19 -10 -27 -11 -9 -14
-14 -6 -15 6 0 12 -4 12 -10 0 -5 -7 -7 -15 -4 -10 4 -13 2 -10 -8 3 -8 -6
-18 -26 -25 -22 -9 -30 -17 -26 -28 8 -20 -2 -47 -15 -39 -6 4 -7 -2 -3 -17 7
-20 6 -22 -7 -12 -8 7 -18 10 -21 6 -11 -10 -8 -61 3 -68 6 -3 10 -16 10 -28
0 -20 -2 -19 -20 8 -20 31 -21 30 -38 -35 -5 -21 -14 -34 -22 -32 -19 4 -30
-19 -25 -50 3 -17 1 -28 -6 -28 -7 0 -10 -13 -7 -35 2 -19 0 -35 -4 -35 -4 0
-8 6 -9 13 0 6 -4 1 -8 -13 -10 -39 -6 -189 8 -252 l12 -58 602 0 c514 1 605
3 621 15 11 8 28 15 39 15 10 0 15 5 12 10 -9 14 -4 13 56 -14 50 -22 86 -25
74 -6 -3 4 7 11 21 14 l26 7 -41 30 c-23 16 -39 34 -36 39 3 6 2 10 -4 10 -16
0 -42 45 -48 82 -3 18 -12 49 -20 68 -19 46 -24 70 -13 70 5 0 7 7 4 15 -4 8
-1 15 5 15 18 0 51 33 51 53 0 10 6 17 13 16 25 -3 38 1 32 11 -3 6 -1 10 4
10 6 0 11 5 11 10 0 6 -7 10 -15 10 -8 0 -19 9 -25 20 -7 14 -7 20 0 20 5 0
10 9 10 19 0 11 5 23 10 26 6 3 10 1 10 -5 0 -7 6 -8 18 -2 9 5 37 9 62 8 25
-2 51 0 58 2 25 9 -62 32 -120 32 -44 0 -60 4 -70 18 -7 11 -22 24 -33 30 -11
5 -21 22 -23 35 -1 21 5 28 36 37 20 7 42 19 49 27 6 8 16 12 21 9 12 -7 52
22 52 39 0 17 31 35 59 35 31 0 26 22 -15 61 -30 29 -34 38 -29 64 4 17 6 84
4 150 -1 66 -2 182 -3 257 -1 75 -4 129 -8 118 -4 -10 -12 -21 -18 -25 -16
-10 -88 41 -102 70 -19 42 -76 69 -249 117 -26 7 -48 17 -50 23 -2 5 19 26 46
47 32 24 50 45 50 59 0 11 9 27 19 35 19 13 19 14 -7 14 -27 0 -27 1 -12 24
14 22 14 24 -1 30 -9 4 -14 9 -11 12 3 4 0 13 -8 20 -11 11 -58 14 -219 14
-124 0 -207 -4 -211 -10z m478 -405 c74 -15 132 -50 103 -61 -9 -3 -22 -2 -29
3 -6 6 -23 13 -37 16 -22 5 -23 4 -6 -6 38 -24 66 -49 66 -58 0 -17 -23 -9
-58 22 -35 31 -36 31 -113 25 -50 -5 -79 -4 -83 3 -10 15 12 51 37 61 30 12
42 12 120 -5z m-12 -114 c-7 -12 -19 -21 -29 -21 -16 1 -16 1 1 11 9 6 15 14
12 20 -9 14 5 33 17 21 6 -6 6 -17 -1 -31z m59 9 c6 -12 10 -28 8 -38 -1 -9 1
-22 5 -29 8 -13 -1 -43 -13 -43 -5 0 -6 -17 -3 -37 4 -34 0 -44 -41 -92 -26
-29 -59 -79 -74 -110 -15 -31 -32 -61 -38 -68 -36 -38 -115 -17 -148 40 -48
79 -55 97 -54 135 0 43 11 61 66 119 25 25 41 33 60 31 21 -2 27 1 26 15 -1 9
3 17 9 17 5 0 3 8 -6 18 -16 18 -23 42 -12 42 3 0 23 -9 45 -20 66 -34 130
-23 130 22 0 24 27 23 40 -2z m-70 -600 c0 -5 -5 -10 -11 -10 -5 0 -7 5 -4 10
3 6 8 10 11 10 2 0 4 -4 4 -10z m-389 -237 c13 -16 12 -17 -3 -4 -10 7 -18 15
-18 17 0 8 8 3 21 -13z m379 -14 c12 -8 9 -9 -10 -4 l-25 6 28 -21 c28 -22 36
-42 15 -37 -6 1 -25 13 -40 27 -26 22 -27 25 -11 31 25 10 26 10 43 -2z m-327
-65 c22 -25 101 -99 176 -165 153 -134 289 -261 250 -233 -45 32 -240 184
-320 251 -96 79 -186 193 -153 193 4 0 25 -21 47 -46z"/>
<path d="M659 1689 c-28 -10 -49 -46 -49 -82 0 -31 11 -44 43 -52 36 -9 44
-30 22 -55 -13 -14 -33 -20 -82 -22 -55 -3 -68 -7 -81 -25 l-14 -23 99 0 c114
0 143 13 163 75 14 44 1 70 -45 89 -47 20 -38 46 15 46 33 0 39 4 49 30 l10
30 -52 -1 c-29 0 -64 -5 -78 -10z"/>
<path d="M800 1674 c-6 -14 -10 -27 -10 -30 0 -2 37 -4 83 -4 l83 0 11 30 11
30 -84 0 c-81 0 -85 -1 -94 -26z"/>
<path d="M983 1670 l-11 -30 49 0 c27 0 49 -2 49 -4 0 -3 -12 -37 -26 -75 -25
-66 -28 -71 -56 -71 l-30 0 33 43 c18 23 37 48 42 55 7 9 1 12 -24 11 -30 0
-42 -10 -103 -82 l-69 -82 118 -3 c81 -2 121 1 125 9 14 22 62 217 58 235 -3
16 -14 19 -73 22 -70 3 -70 3 -82 -28z"/>
<path d="M1191 1670 l-10 -30 60 0 c32 0 59 -4 59 -8 0 -21 -29 -32 -80 -32
l-57 0 -26 -67 c-14 -38 -29 -76 -33 -85 -5 -15 0 -18 30 -18 34 0 38 3 61 55
14 33 30 55 39 55 20 0 20 -11 1 -57 -21 -50 -19 -55 23 -51 36 3 38 5 58 63
12 33 33 87 48 119 15 32 25 65 22 72 -4 10 -29 14 -95 14 l-89 0 -11 -30z"/>
<path d="M1462 1675 c-7 -14 -12 -28 -12 -30 0 -3 38 -5 83 -5 80 0 84 1 95
25 7 14 12 28 12 30 0 3 -38 5 -83 5 -80 0 -84 -1 -95 -25z"/>
<path d="M1650 1674 c-6 -14 -10 -27 -10 -30 0 -2 25 -4 55 -4 30 0 55 -3 55
-7 -1 -22 -21 -32 -74 -35 l-58 -3 -33 -82 -33 -83 38 0 c36 0 38 2 60 55 20
50 37 65 53 49 3 -3 -3 -28 -13 -55 l-20 -49 39 0 c38 0 39 1 61 63 12 34 33
84 46 111 13 28 24 60 24 73 0 22 -3 23 -90 23 -88 0 -91 -1 -100 -26z"/>
<path d="M1873 1670 l-11 -30 83 0 83 0 11 30 10 30 -82 0 c-83 0 -83 0 -94
-30z"/>
<path d="M2061 1673 c-6 -13 -11 -26 -11 -28 0 -3 44 -5 98 -5 96 0 99 1 127
30 l28 30 -115 -1 c-112 -2 -116 -2 -127 -26z"/>
<path d="M811 1578 c-5 -13 -21 -49 -35 -82 -14 -32 -26 -60 -26 -62 0 -2 15
-4 33 -4 35 0 38 5 93 153 5 14 0 17 -25 17 -23 0 -34 -6 -40 -22z"/>
<path d="M1451 1528 c-18 -40 -35 -79 -38 -85 -4 -9 6 -13 30 -13 33 0 35 2
66 75 17 41 31 79 31 85 0 5 -13 10 -29 10 -25 0 -31 -7 -60 -72z"/>
<path d="M1808 1515 l-36 -85 79 0 c67 0 80 3 89 19 17 33 11 41 -30 41 -43 0
-45 2 -30 31 8 14 21 19 54 19 36 0 45 4 54 25 7 14 12 28 12 30 0 3 -35 5
-78 5 l-78 0 -36 -85z"/>
<path d="M1998 1515 l-36 -85 34 0 c33 0 37 4 59 55 22 48 27 54 46 47 12 -5
31 -28 43 -53 19 -39 25 -44 59 -47 l39 -3 -44 83 -43 83 -60 3 -60 3 -37 -86z"/>
<path d="M3335 1580 c-19 -8 -19 -8 -1 -15 17 -8 17 -9 -5 -26 -13 -10 -20
-21 -16 -26 5 -4 12 -1 17 7 8 12 10 12 10 -4 0 -12 5 -16 16 -12 9 3 24 6 35
6 15 0 19 7 19 35 0 24 -5 35 -14 35 -8 0 -20 2 -28 4 -7 3 -22 1 -33 -4z"/>
<path d="M3326 1448 c-19 -11 -21 -28 -3 -28 6 0 19 -15 27 -33 9 -20 24 -33
38 -35 22 -3 23 -1 20 44 -3 45 -5 49 -34 55 -18 3 -39 2 -48 -3z"/>
<path d="M2105 1399 c-11 -17 1 -21 15 -4 8 9 8 15 2 15 -6 0 -14 -5 -17 -11z"/>
<path d="M490 1324 c-11 -25 -20 -48 -20 -50 0 -2 14 -4 30 -4 29 0 41 15 19
22 -8 3 -7 14 5 35 20 39 20 43 1 43 -9 0 -24 -20 -35 -46z"/>
<path d="M600 1360 c0 -5 7 -10 15 -10 8 0 15 -8 15 -17 0 -23 -17 -49 -26
-40 -4 3 -1 13 6 22 10 13 9 15 -6 14 -11 0 -29 -13 -42 -30 l-24 -29 55 0 55
0 11 44 c6 25 11 47 11 50 0 3 -16 6 -35 6 -19 0 -35 -4 -35 -10z"/>
<path d="M733 1320 c-20 -46 -20 -50 -4 -50 12 0 24 14 34 40 8 22 20 40 26
40 7 0 6 -13 -4 -36 -18 -44 -18 -44 -2 -44 11 0 57 78 57 95 0 3 -19 5 -42 5
-42 0 -44 -2 -65 -50z"/>
<path d="M857 1358 c-3 -7 -12 -30 -21 -50 l-16 -38 44 0 c43 0 44 1 64 50 17
40 18 50 7 50 -8 0 -24 -18 -35 -40 -11 -22 -25 -40 -30 -40 -6 0 -1 18 10 40
20 39 20 40 1 40 -10 0 -21 -6 -24 -12z"/>
<path d="M950 1324 c-11 -25 -20 -48 -20 -50 0 -2 14 -4 30 -4 17 0 30 5 30
10 0 6 -4 10 -10 10 -5 0 -10 5 -10 10 0 6 9 10 20 10 22 0 27 16 8 23 -16 5
-10 13 20 21 21 7 22 4 22 -38 0 -58 17 -60 55 -6 15 22 32 40 36 40 5 0 9 5
9 10 0 21 -36 9 -52 -17 l-17 -28 -1 28 c0 26 -2 27 -50 27 -51 0 -51 0 -70
-46z"/>
<path d="M1160 1360 c0 -5 7 -10 16 -10 12 0 15 -6 10 -22 -3 -13 -6 -26 -6
-30 0 -5 -7 -8 -17 -8 -14 0 -14 2 2 20 18 19 17 20 -2 20 -10 0 -29 -13 -41
-30 l-23 -30 54 0 c51 0 55 2 61 28 3 15 8 37 12 50 6 20 3 22 -30 22 -20 0
-36 -4 -36 -10z"/>
<path d="M1292 1320 l-21 -50 43 0 c36 0 45 4 54 25 16 34 15 35 -7 35 -10 0
-21 -9 -24 -20 -3 -11 -10 -20 -16 -20 -8 0 -6 10 4 30 11 21 23 30 40 30 14
0 25 5 25 10 0 6 -17 10 -39 10 -37 0 -39 -2 -59 -50z"/>
<path d="M1400 1324 c-11 -26 -20 -48 -20 -50 0 -2 14 -4 30 -4 30 0 41 14 18
23 -8 4 -4 8 10 12 22 7 31 25 12 25 -5 0 -10 5 -10 10 0 6 6 10 14 10 8 0 18
5 21 10 4 6 -6 10 -24 10 -26 0 -33 -6 -51 -46z"/>
<path d="M1482 1325 c-26 -54 -26 -55 -6 -55 9 0 22 17 31 40 9 22 20 40 25
40 11 0 10 -5 -6 -45 -14 -32 -13 -35 2 -35 15 0 52 67 52 93 0 4 -17 7 -38 7
-35 0 -40 -3 -60 -45z"/>
<path d="M1590 1330 c-27 -52 -25 -60 10 -60 17 0 30 5 30 10 0 6 -4 10 -10
10 -19 0 -10 18 13 25 13 4 17 8 10 12 -18 7 -16 23 1 23 8 0 18 5 21 10 4 6
-6 10 -24 10 -26 0 -34 -7 -51 -40z"/>
<path d="M1677 1343 c-26 -50 -30 -73 -13 -73 8 0 18 9 21 20 3 11 11 20 16
20 6 0 7 -9 4 -20 -4 -14 -2 -20 9 -20 13 0 56 73 56 94 0 4 -18 6 -40 6 -33
0 -42 -4 -53 -27z m53 -3 c0 -5 -4 -10 -10 -10 -5 0 -10 5 -10 10 0 6 5 10 10
10 6 0 10 -4 10 -10z"/>
<path d="M1805 1360 c-3 -5 3 -10 14 -10 24 0 24 0 11 -34 -5 -14 -15 -26 -21
-26 -8 0 -8 4 1 15 7 9 10 19 6 22 -9 10 -36 -8 -54 -36 -15 -22 -15 -22 38
-19 l53 3 13 45 c8 25 14 46 14 48 0 7 -70 0 -75 -8z"/>
<path d="M1897 1343 c-8 -16 -18 -38 -21 -50 -7 -21 -4 -23 28 -23 19 0 38 5
41 10 3 6 -3 10 -14 10 -24 0 -25 1 -9 35 7 16 19 25 35 25 12 0 23 5 23 10 0
6 -16 10 -35 10 -28 0 -37 -5 -48 -27z"/>
<path d="M1982 1325 c-26 -54 -26 -55 -7 -55 14 0 55 67 55 90 0 26 -28 6 -48
-35z"/>
<path d="M2040 1330 c-27 -54 -26 -60 18 -60 35 0 40 3 60 45 12 25 22 48 22
50 0 3 -18 5 -40 5 -36 0 -41 -3 -60 -40z m47 -10 c-11 -29 -27 -41 -27 -19 0
16 20 49 29 49 5 0 4 -13 -2 -30z"/>
<path d="M2142 1325 c-26 -54 -26 -55 -7 -55 8 0 24 19 36 43 12 23 24 37 26
30 2 -6 -3 -25 -12 -42 -15 -29 -15 -31 4 -31 13 0 24 13 35 40 22 56 21 60
-22 60 -35 0 -40 -3 -60 -45z"/>
<path d="M123 1210 c-89 -21 -104 -67 -53 -157 33 -58 102 -119 240 -213 50
-35 105 -79 123 -100 18 -20 42 -42 54 -49 27 -14 85 -22 78 -10 -9 14 11 18
41 9 l29 -10 -27 4 c-16 2 -28 0 -28 -3 0 -12 60 -42 71 -36 6 4 16 0 22 -8
12 -15 303 -112 427 -142 95 -23 334 -31 385 -12 40 14 40 14 41 68 0 33 -5
64 -15 79 -9 14 -21 34 -27 45 -16 30 -168 142 -290 215 -356 212 -875 367
-1071 320z m399 -159 c236 -61 427 -142 582 -246 86 -57 167 -124 129 -105
-12 5 -34 10 -48 10 -14 0 -35 5 -45 10 -23 13 -37 -5 -20 -25 9 -11 16 -12
31 -2 15 9 22 8 35 -4 14 -15 14 -17 0 -22 -8 -3 -18 -2 -21 3 -4 6 -11 10
-17 10 -6 0 -5 -7 3 -17 13 -17 13 -17 -7 0 -29 24 -41 21 -18 -5 l19 -21 -28
18 c-18 11 -24 21 -17 25 11 7 -5 20 -67 56 l-28 16 24 -19 c14 -10 34 -26 45
-36 21 -18 21 -18 -7 -12 -19 4 -26 2 -22 -5 3 -5 14 -10 23 -10 12 0 13 -3 4
-12 -12 -12 -16 -11 -131 45 -58 28 -82 30 -34 2 l28 -16 -30 6 c-16 3 -37 7
-46 9 -27 4 -82 27 -206 88 -115 55 -153 82 -100 71 19 -4 20 -3 4 7 -9 6 -21
9 -25 6 -5 -3 -21 6 -36 19 -19 16 -36 23 -51 19 -13 -3 -30 2 -46 16 -24 21
-24 21 -1 10 13 -6 28 -9 35 -7 7 2 -1 11 -17 18 l-30 14 30 6 c22 5 15 7 -27
8 -48 1 -61 6 -92 34 -20 18 -37 40 -37 50 0 29 126 23 262 -12z m-274 -62 c1
-29 0 -30 -13 -13 -7 11 -10 20 -5 22 5 2 6 10 3 19 -4 10 -2 14 4 10 5 -3 10
-20 11 -38z m524 -280 c34 -8 45 -14 41 -25 -3 -8 -6 -14 -8 -14 -12 0 -76 27
-100 43 -28 18 -28 19 -5 13 14 -4 46 -11 72 -17z m483 -39 c3 -5 -3 -10 -14
-10 -11 0 -23 5 -26 10 -3 6 3 10 14 10 11 0 23 -4 26 -10z m-255 -20 c-20
-13 -40 -13 -40 0 0 6 12 10 28 10 21 0 24 -2 12 -10z m295 -31 c12 -19 -5
-23 -22 -6 -16 16 -16 17 -1 17 9 0 20 -5 23 -11z m18 -54 c0 -6 -7 -11 -16
-13 -12 -3 -15 1 -11 13 7 17 25 17 27 0z m-33 -35 c0 -5 -7 -10 -15 -10 -8 0
-15 5 -15 10 0 6 7 10 15 10 8 0 15 -4 15 -10z"/>
<path d="M675 820 c-3 -5 1 -10 10 -10 9 0 13 5 10 10 -3 6 -8 10 -10 10 -2 0
-7 -4 -10 -10z"/>
<path d="M722 804 c9 -9 21 -15 27 -13 6 2 -2 10 -17 17 -25 11 -25 11 -10 -4z"/>
<path d="M870 791 c0 -8 70 -44 76 -38 2 2 -14 13 -36 25 -22 11 -40 18 -40
13z"/>
<path d="M940 786 c0 -3 14 -12 30 -21 17 -9 30 -13 30 -11 0 3 -13 12 -30 21
-16 9 -30 13 -30 11z"/>
<path d="M797 769 c7 -7 15 -10 18 -7 3 3 -2 9 -12 12 -14 6 -15 5 -6 -5z"/>
<path d="M1048 763 c7 -3 16 -2 19 1 4 3 -2 6 -13 5 -11 0 -14 -3 -6 -6z"/>
<path d="M3225 870 c3 -5 8 -10 11 -10 2 0 4 5 4 10 0 6 -5 10 -11 10 -5 0 -7
-4 -4 -10z"/>
<path d="M144 715 c-8 -34 13 -52 34 -27 13 16 13 16 8 0 -3 -11 0 -18 8 -18
25 0 46 12 46 25 0 7 6 15 12 17 8 3 4 10 -11 17 -17 10 -30 10 -46 3 -16 -7
-26 -7 -33 0 -8 8 -13 3 -18 -17z"/>
<path d="M638 623 c7 -3 16 -2 19 1 4 3 -2 6 -13 5 -11 0 -14 -3 -6 -6z"/>
<path d="M162 611 c2 -8 15 -21 29 -30 19 -11 21 -12 9 0 -8 8 -20 21 -28 29
-11 12 -13 12 -10 1z"/>
<path d="M296 554 c-4 -9 -5 -18 -4 -19 115 -75 279 -129 339 -110 32 10 21
21 -23 23 -73 5 -116 21 -164 63 -69 59 -135 78 -148 43z m108 -43 c-5 -6 -34
20 -34 30 0 5 8 1 18 -8 10 -10 17 -20 16 -22z"/>
<path d="M250 550 c8 -5 20 -10 25 -10 6 0 3 5 -5 10 -8 5 -19 10 -25 10 -5 0
-3 -5 5 -10z"/>
<path d="M560 526 c0 -2 8 -10 18 -17 15 -13 16 -12 3 4 -13 16 -21 21 -21 13z"/>
<path d="M627 480 c7 -7 25 -15 40 -16 31 -3 16 8 -27 21 -20 6 -23 5 -13 -5z"/>
<path d="M757 469 c7 -7 15 -10 18 -7 3 3 -2 9 -12 12 -14 6 -15 5 -6 -5z"/>
<path d="M0 400 c0 -41 3 -50 18 -50 14 0 15 2 2 10 -12 8 -12 10 5 10 11 0
27 -5 35 -10 12 -8 12 -10 -5 -10 -16 0 -17 -2 -6 -9 11 -7 6 -11 -20 -14 -24
-3 -17 -4 22 -5 36 -1 61 -7 69 -17 7 -8 24 -15 39 -15 31 0 46 -10 46 -29 0
-19 35 -23 42 -5 3 9 13 12 24 9 29 -10 22 4 -8 17 l-28 11 25 6 c24 7 23 7
-10 20 -75 28 -76 32 -12 26 34 -2 62 -2 62 1 0 11 -129 62 -200 78 -41 10
-81 19 -87 22 -9 2 -13 -11 -13 -46z"/>
<path d="M34 258 c-3 -5 -11 -7 -18 -5 -7 3 -13 -4 -13 -14 -1 -10 3 -19 8
-19 6 0 7 5 4 10 -3 6 -1 10 5 10 6 0 13 -6 16 -14 8 -20 25 -25 49 -15 l20 9
-20 -2 c-11 -2 -26 1 -34 6 -11 7 -9 11 9 21 l22 12 -21 6 c-11 3 -24 1 -27
-5z"/>
<path d="M336 204 c-5 -12 -2 -15 10 -10 8 3 18 6 20 6 2 0 4 5 4 10 0 16 -27
11 -34 -6z"/>
<path d="M48 171 c54 -44 63 -54 37 -45 -8 4 -15 11 -15 17 0 6 -6 3 -13 -7
-11 -15 -17 -17 -35 -7 -18 9 -22 9 -22 -2 0 -7 6 -19 13 -26 9 -11 9 -13 0
-7 -23 13 -15 -38 8 -52 12 -7 18 -16 15 -19 -3 -3 -12 0 -21 7 -13 10 -15 9
-15 -8 0 -18 7 -20 75 -20 41 0 77 4 80 9 4 5 -1 6 -9 3 -26 -10 -18 12 9 26
22 12 27 11 40 -6 13 -16 14 -16 9 -1 -5 12 -1 17 14 17 29 0 33 12 19 51 -14
39 -26 51 -46 44 -7 -3 -21 0 -29 7 -14 11 -15 10 -8 -7 5 -15 4 -17 -5 -8 -6
6 -18 9 -26 6 -8 -3 -21 4 -30 16 -8 12 -21 20 -29 17 -8 -3 -14 1 -14 9 0 8
-4 15 -9 15 -5 0 -18 3 -28 7 -10 3 6 -13 35 -36z m131 -74 c-9 -15 -13 -16
-27 -5 -13 11 -15 11 -9 -4 7 -21 -3 -24 -21 -6 -10 10 -7 15 10 24 35 19 59
14 47 -9z m-82 -3 c-10 -10 -69 -16 -63 -6 2 4 19 9 37 10 18 1 30 -1 26 -4z"/>
<path d="M94 185 c8 -8 20 -15 27 -15 7 0 4 6 -7 15 -25 19 -40 19 -20 0z"/>
<path d="M324 169 c-2 -4 0 -10 6 -14 11 -7 30 2 30 14 0 10 -29 10 -36 0z"/>
<path d="M0 162 c0 -11 37 -32 44 -25 8 9 -14 33 -30 33 -8 0 -14 -3 -14 -8z"/>
<path d="M243 118 c-2 -18 0 -20 7 -8 12 18 13 30 2 30 -4 0 -9 -10 -9 -22z"/>
<path d="M262 106 c1 -10 8 -17 13 -17 15 1 12 24 -3 29 -9 3 -13 -2 -10 -12z"/>
<path d="M270 60 c0 -5 5 -10 11 -10 5 0 7 5 4 10 -3 6 -8 10 -11 10 -2 0 -4
-4 -4 -10z"/>
<path d="M3294 55 c11 -8 22 -12 25 -9 6 6 -19 24 -34 24 -5 -1 -1 -7 9 -15z"/>
<path d="M425 50 c-3 -5 -13 -6 -23 -3 -14 5 -15 3 -4 -8 10 -11 15 -10 29 4
10 9 14 17 11 17 -4 0 -9 -4 -13 -10z"/>
<path d="M370 10 c-23 -8 -22 -8 8 -7 19 1 36 5 38 9 6 10 -13 9 -46 -2z"/>
</g>
</svg>
